<svg xmlns="http://www.w3.org/2000/svg" viewBox="0 0 24 24" width="24" height="24">
  <defs>
    <linearGradient id="face" x1="0" y1="0" x2="0" y2="1">
      <stop offset="0" stop-color="#f87171"/>
      <stop offset="1" stop-color="#dc2626"/>
    </linearGradient>
    <linearGradient id="gloss" x1="0" y1="0" x2="0" y2="1">
      <stop offset="0" stop-color="#ffffff" stop-opacity="0.55"/>
      <stop offset="1" stop-color="#ffffff" stop-opacity="0"/>
    </linearGradient>
  </defs>
  <rect x="1.5" y="1.5" width="21" height="21" rx="6" fill="url(#face)" stroke="#991b1b" stroke-width="0.8"/>
  <rect x="1.5" y="1.5" width="21" height="10.5" rx="6" fill="url(#gloss)"/>
  <g transform="translate(2.4,2.4) scale(0.8)" fill="none" stroke="#ffffff" stroke-width="2.5" stroke-linecap="round" stroke-linejoin="round">
    <path d="M11 5.05A10 10 0 0 0 2.05 13"/>
    <path d="M11 5.05A10 10 0 0 1 19 12"/>
    <path d="M11 5.05A10 10 0 0 0 2.05 13"/>
    <path d="M15.5 7.5a6 6 0 0 1 0 9"/>
    <path d="M17.5 5.5a10 10 0 0 1 0 13"/>
  </g>
</svg>