<svg xmlns="http://www.w3.org/2000/svg" width="400" height="400" viewBox="0 0 400 400">
  <defs>
    <linearGradient id="grad" x1="0%" y1="0%" x2="100%" y2="100%">
      <stop offset="0%" style="stop-color:#0A0E1A;stop-opacity:1" />
      <stop offset="100%" style="stop-color:#121828;stop-opacity:1" />
    </linearGradient>
  </defs>
  <rect width="400" height="400" fill="url(#grad)"/>
  <line x1="0" y1="50" x2="400" y2="50" stroke="#00D4FF" stroke-width="1" opacity="0.1"/>
  <line x1="0" y1="100" x2="400" y2="100" stroke="#00D4FF" stroke-width="1" opacity="0.1"/>
  <line x1="0" y1="150" x2="400" y2="150" stroke="#00D4FF" stroke-width="1" opacity="0.1"/>
  <line x1="0" y1="200" x2="400" y2="200" stroke="#00D4FF" stroke-width="1" opacity="0.1"/>
  <line x1="0" y1="250" x2="400" y2="250" stroke="#00D4FF" stroke-width="1" opacity="0.1"/>
  <line x1="0" y1="300" x2="400" y2="300" stroke="#00D4FF" stroke-width="1" opacity="0.1"/>
  <line x1="0" y1="350" x2="400" y2="350" stroke="#00D4FF" stroke-width="1" opacity="0.1"/>
  <line x1="50" y1="0" x2="50" y2="400" stroke="#00D4FF" stroke-width="1" opacity="0.1"/>
  <line x1="100" y1="0" x2="100" y2="400" stroke="#00D4FF" stroke-width="1" opacity="0.1"/>
  <line x1="150" y1="0" x2="150" y2="400" stroke="#00D4FF" stroke-width="1" opacity="0.1"/>
  <line x1="200" y1="0" x2="200" y2="400" stroke="#00D4FF" stroke-width="1" opacity="0.1"/>
  <line x1="250" y1="0" x2="250" y2="400" stroke="#00D4FF" stroke-width="1" opacity="0.1"/>
  <line x1="300" y1="0" x2="300" y2="400" stroke="#00D4FF" stroke-width="1" opacity="0.1"/>
  <line x1="350" y1="0" x2="350" y2="400" stroke="#00D4FF" stroke-width="1" opacity="0.1"/>
  <circle cx="100" cy="100" r="5" fill="#00D4FF" opacity="0.4"/>
  <circle cx="300" cy="150" r="3" fill="#00FFCC" opacity="0.5"/>
  <circle cx="200" cy="300" r="4" fill="#00D4FF" opacity="0.3"/>
  <circle cx="50" cy="350" r="6" fill="#00FFCC" opacity="0.4"/>
  <polygon points="200,50 210,80 190,80" fill="#00D4FF" opacity="0.2"/>
  <polygon points="350,300 360,330 340,330" fill="#00FFCC" opacity="0.2"/>
</svg>